<svg width="56" height="56" viewBox="0 0 56 56" fill="none" xmlns="http://www.w3.org/2000/svg">
<path d="M42.1748 3.62567L51.9118 13.7757V52.3737H15.5381V52.4997H52.0361V13.9034L42.1748 3.62567Z" fill="#909090"/>
<path d="M42.0543 3.5H15.4141V52.374H51.9121V13.7778L42.0543 3.5Z" fill="#F4F4F4"/>
<path d="M15.1464 6.125H3.96387V18.0722H39.1389V6.125H15.1464Z" fill="#7A7B7C"/>
<path d="M39.3262 17.869H4.19141V5.91296H39.3262V17.869Z" fill="#DD2025"/>
<path d="M15.841 7.93479H13.5537V16.3348H15.3527V13.5015L15.75 13.5243C16.1361 13.519 16.5187 13.4498 16.8822 13.3195C17.2018 13.211 17.4955 13.0377 17.745 12.8103C18.0007 12.5958 18.2017 12.3234 18.3312 12.0158C18.5084 11.506 18.5711 10.9635 18.515 10.4268C18.505 10.0433 18.4377 9.66342 18.3155 9.29979C18.2053 9.03695 18.0414 8.80002 17.8344 8.60414C17.6274 8.40827 17.3817 8.25778 17.1132 8.16229C16.8817 8.07655 16.6418 8.01554 16.3975 7.98029C16.2129 7.95023 16.0262 7.93502 15.8392 7.93479M15.5085 11.9493H15.3527V9.35929H15.6905C15.8395 9.34854 15.9891 9.37142 16.1281 9.42625C16.2672 9.48107 16.3921 9.56644 16.4937 9.67604C16.7043 9.95781 16.8168 10.3008 16.814 10.6525C16.814 11.083 16.814 11.4733 16.4255 11.748C16.1456 11.9022 15.827 11.9732 15.5085 11.9493ZM21.9327 7.91204C21.7385 7.91204 21.5495 7.92604 21.4165 7.93129L21 7.94179H19.635V16.3418H21.2415C21.8553 16.3576 22.4664 16.2536 23.0405 16.0355C23.5027 15.853 23.9118 15.5576 24.2305 15.1763C24.5427 14.7933 24.7657 14.3455 24.8832 13.8655C25.0212 13.3229 25.0883 12.7647 25.0827 12.2048C25.117 11.5436 25.0658 10.8807 24.9305 10.2325C24.8009 9.75599 24.5611 9.31659 24.2305 8.94979C23.9711 8.65318 23.6521 8.41465 23.2942 8.24979C22.9877 8.10769 22.6651 8.0031 22.3335 7.93829C22.2016 7.91667 22.0681 7.90672 21.9345 7.90854M21.616 14.7983H21.441V9.43629H21.4637C21.8245 9.39457 22.1896 9.45968 22.5137 9.62354C22.7511 9.81311 22.9446 10.0519 23.0807 10.3235C23.2276 10.6094 23.3123 10.9231 23.3292 11.244C23.345 11.629 23.3292 11.944 23.3292 12.2048C23.3357 12.5051 23.3164 12.8055 23.2715 13.1025C23.2164 13.4072 23.1168 13.702 22.9757 13.9775C22.8164 14.2345 22.5987 14.4503 22.3405 14.6075C22.1247 14.7475 21.8689 14.8127 21.6125 14.793M30.5025 7.94179H26.25V16.3418H28.049V13.0098H30.324V11.4488H28.049V9.50279H30.499V7.94179" fill="#464648"/>
<path d="M38.1172 35.4463C38.1172 35.4463 43.6962 34.4348 43.6962 36.3406C43.6962 38.2463 40.2399 37.4711 38.1172 35.4463ZM33.9924 35.5916C33.1059 35.7869 32.242 36.0737 31.4147 36.4473L32.1147 34.8723C32.8147 33.2973 33.5409 31.1501 33.5409 31.1501C34.3741 32.5573 35.3462 33.8775 36.4424 35.0911C35.6171 35.214 34.7992 35.3823 33.9924 35.5951V35.5916ZM31.7839 24.2166C31.7839 22.5558 32.3212 22.1026 32.7394 22.1026C33.1577 22.1026 33.6284 22.3038 33.6442 23.7458C33.5077 25.1958 33.2041 26.6251 32.7394 28.0053C32.1007 26.8473 31.7711 25.5443 31.7822 24.2218L31.7839 24.2166ZM23.6482 42.6196C21.9367 41.5958 27.2374 38.4441 28.1982 38.3426C28.1929 38.3443 25.4402 43.6906 23.6482 42.6196ZM45.3254 36.5663C45.3079 36.3913 45.1504 34.4541 41.7029 34.5363C40.2659 34.5111 38.8295 34.6124 37.4102 34.8391C36.0345 33.4544 34.8503 31.8917 33.8892 30.1928C34.4943 28.4416 34.861 26.6169 34.9794 24.7678C34.9287 22.6678 34.4264 21.4638 32.8164 21.4813C31.2064 21.4988 30.9719 22.9076 31.1837 25.0041C31.3909 26.413 31.7822 27.7885 32.3474 29.0956C32.3474 29.0956 31.6037 31.4108 30.6202 33.7138C29.6367 36.0168 28.9647 37.2243 28.9647 37.2243C27.2542 37.7805 25.6441 38.6077 24.1959 39.6743C22.7539 41.0166 22.1677 42.0473 22.9272 43.0781C23.5817 43.9671 25.8724 44.1683 27.9199 41.4856C29.006 40.0986 29.9998 38.6418 30.8949 37.1246C30.8949 37.1246 34.0169 36.2688 34.9882 36.0343C35.9594 35.7998 37.1337 35.6143 37.1337 35.6143C37.1337 35.6143 39.9844 38.4826 42.7337 38.3811C45.4829 38.2796 45.3499 36.7378 45.3324 36.5698" fill="#DD2025"/>
<path d="M41.9194 3.63501V13.9128H51.7772L41.9194 3.63501Z" fill="#909090"/>
<path d="M42.0537 3.5V13.7778H51.9115L42.0537 3.5Z" fill="#F4F4F4"/>
<path d="M15.7062 7.79978H13.4189V16.1998H15.2249V13.3683L15.6239 13.391C16.0101 13.3857 16.3927 13.3165 16.7562 13.1863C17.0758 13.0778 17.3695 12.9044 17.6189 12.677C17.8728 12.462 18.072 12.1896 18.1999 11.8825C18.3771 11.3728 18.4399 10.8303 18.3837 10.2935C18.3737 9.91002 18.3065 9.53016 18.1842 9.16653C18.074 8.90369 17.9102 8.66676 17.7031 8.47088C17.4961 8.27501 17.2505 8.12452 16.9819 8.02903C16.7494 7.94245 16.5083 7.88086 16.2627 7.84528C16.0781 7.81522 15.8914 7.80001 15.7044 7.79978M15.3737 11.8143H15.2179V9.22428H15.5574C15.7065 9.21353 15.8561 9.23641 15.9951 9.29124C16.1342 9.34606 16.2591 9.43143 16.3607 9.54103C16.5713 9.8228 16.6837 10.1658 16.6809 10.5175C16.6809 10.948 16.6809 11.3383 16.2924 11.613C16.0126 11.7672 15.694 11.8365 15.3754 11.8125M21.7979 7.77703C21.6037 7.77703 21.4147 7.79103 21.2817 7.79628L20.8704 7.80678H19.5054V16.2068H21.1119C21.7258 16.2226 22.3369 16.1185 22.9109 15.9005C23.3731 15.718 23.7823 15.4226 24.1009 15.0413C24.4132 14.6583 24.6362 14.2105 24.7537 13.7305C24.8917 13.1879 24.9588 12.6297 24.9532 12.0698C24.9875 11.4085 24.9363 10.7457 24.8009 10.0975C24.6714 9.62098 24.4316 9.18158 24.1009 8.81478C23.8416 8.51817 23.5226 8.27964 23.1647 8.11478C22.8581 7.97268 22.5356 7.86809 22.2039 7.80328C22.0721 7.78166 21.9386 7.77171 21.8049 7.77353M21.4864 14.6633H21.3114V9.30128H21.3342C21.695 9.25956 22.0601 9.32467 22.3842 9.48853C22.6216 9.6781 22.8151 9.91693 22.9512 10.1885C23.0981 10.4744 23.1828 10.7881 23.1997 11.109C23.2154 11.494 23.1997 11.809 23.1997 12.0698C23.2062 12.3701 23.1868 12.6705 23.1419 12.9675C23.0869 13.2721 22.9872 13.567 22.8462 13.8425C22.6869 14.0995 22.4692 14.3153 22.2109 14.4725C21.9952 14.6125 21.7394 14.6777 21.4829 14.658M30.3677 7.80678H26.1152V16.2068H27.9142V12.8748H30.1892V11.3138H27.9142V9.36778H30.3642V7.80678" fill="white"/>
</svg>
