<svg width="28" height="29" viewBox="0 0 28 29" fill="none" xmlns="http://www.w3.org/2000/svg">
<path d="M25.4305 6.94035C22.6687 5.34613 19.1373 6.29345 17.5413 9.05519L13.5182 16.0243C12.3541 18.0367 13.8528 18.74 15.5238 19.7419L19.395 21.9762C20.7059 22.7323 22.3803 22.2834 23.1365 20.9742L27.2722 13.8122C28.6616 11.4055 27.8371 8.32978 25.4305 6.94035Z" fill="#EA4335"/>
<path d="M20.8777 9.8248L17.0065 7.59053C14.8695 6.40426 13.6594 6.32574 12.782 7.72025L7.07256 17.6082C5.47832 20.3682 6.42735 23.898 9.18735 25.4888C11.594 26.8782 14.6698 26.0538 16.0592 23.6471L21.8779 13.568C22.6375 12.2571 22.1886 10.581 20.8777 9.8248Z" fill="#FBBC04"/>
<path d="M21.623 4.74189L18.9039 3.17157C15.8965 1.43568 12.0509 2.46492 10.315 5.47243L5.13806 14.4386C4.37338 15.7614 4.82741 17.4546 6.15026 18.2176L9.19532 19.9757C10.699 20.8445 12.621 20.329 13.4898 18.8253L19.4041 8.58237C20.6296 6.46071 23.3418 5.73358 25.4634 6.95911L21.623 4.74189Z" fill="#34A853"/>
<path d="M11.0505 8.03783L8.1113 6.34461C6.80039 5.59018 5.12598 6.03738 4.36984 7.34484L0.843445 13.4384C-0.892448 16.4373 0.136797 20.2744 3.1443 22.0052L5.38201 23.2938L8.09592 24.8573L9.27368 25.5349C7.18275 24.1353 6.51878 21.3309 7.79721 19.1222L8.71038 17.5451L12.0542 11.7673C12.8086 10.4633 12.3597 8.79226 11.0505 8.03783Z" fill="#4285F4"/>
</svg>
